<svg width="27" height="27" viewBox="0 0 27 27" fill="none" xmlns="http://www.w3.org/2000/svg">
<path d="M13.5 16.875C15.364 16.875 16.875 15.364 16.875 13.5C16.875 11.636 15.364 10.125 13.5 10.125C11.636 10.125 10.125 11.636 10.125 13.5C10.125 15.364 11.636 16.875 13.5 16.875Z" stroke="black" stroke-width="2.25" stroke-linecap="round" stroke-linejoin="round"/>
<path d="M21.8252 16.875C21.6755 17.2143 21.6308 17.5907 21.697 17.9557C21.7632 18.3206 21.9371 18.6574 22.1965 18.9225L22.264 18.99C22.4732 19.199 22.6391 19.4471 22.7524 19.7203C22.8656 19.9934 22.9239 20.2862 22.9239 20.5819C22.9239 20.8776 22.8656 21.1703 22.7524 21.4435C22.6391 21.7166 22.4732 21.9648 22.264 22.1737C22.055 22.3829 21.8069 22.5489 21.5337 22.6621C21.2606 22.7754 20.9678 22.8336 20.6721 22.8336C20.3764 22.8336 20.0836 22.7754 19.8105 22.6621C19.5374 22.5489 19.2892 22.3829 19.0802 22.1737L19.0127 22.1062C18.7476 21.8469 18.4109 21.6729 18.0459 21.6067C17.681 21.5406 17.3046 21.5852 16.9652 21.735C16.6325 21.8776 16.3487 22.1144 16.1488 22.4162C15.949 22.7181 15.8417 23.0717 15.8402 23.4337V23.625C15.8402 24.2217 15.6032 24.794 15.1812 25.216C14.7593 25.6379 14.187 25.875 13.5902 25.875C12.9935 25.875 12.4212 25.6379 11.9993 25.216C11.5773 24.794 11.3402 24.2217 11.3402 23.625V23.5237C11.3315 23.1514 11.211 22.7902 10.9943 22.4873C10.7776 22.1843 10.4748 21.9536 10.1252 21.825C9.78593 21.6752 9.40953 21.6306 9.04458 21.6967C8.67964 21.7629 8.34288 21.9369 8.07774 22.1962L8.01024 22.2638C7.80128 22.4729 7.55313 22.6389 7.27998 22.7521C7.00684 22.8654 6.71405 22.9236 6.41837 22.9236C6.12268 22.9236 5.8299 22.8654 5.55675 22.7521C5.28361 22.6389 5.03546 22.4729 4.82649 22.2638C4.6173 22.0548 4.45134 21.8066 4.33811 21.5335C4.22488 21.2603 4.1666 20.9676 4.1666 20.6719C4.1666 20.3762 4.22488 20.0834 4.33811 19.8103C4.45134 19.5371 4.6173 19.289 4.82649 19.08L4.89399 19.0125C5.15335 18.7474 5.32733 18.4106 5.3935 18.0457C5.45967 17.6807 5.415 17.3043 5.26524 16.965C5.12264 16.6323 4.88584 16.3485 4.58402 16.1486C4.28219 15.9487 3.9285 15.8414 3.56649 15.84H3.37524C2.77851 15.84 2.20621 15.6029 1.78425 15.181C1.3623 14.759 1.12524 14.1867 1.12524 13.59C1.12524 12.9933 1.3623 12.421 1.78425 11.999C2.20621 11.5771 2.77851 11.34 3.37524 11.34H3.47649C3.84886 11.3313 4.21 11.2108 4.51296 10.9941C4.81591 10.7774 5.04667 10.4746 5.17524 10.125C5.325 9.78568 5.36967 9.40928 5.3035 9.04434C5.23733 8.67939 5.06335 8.34264 4.80399 8.0775L4.73649 8.01C4.5273 7.80104 4.36134 7.55289 4.24811 7.27974C4.13488 7.00659 4.0766 6.71381 4.0766 6.41812C4.0766 6.12244 4.13488 5.82965 4.24811 5.55651C4.36134 5.28336 4.5273 5.03521 4.73649 4.82625C4.94546 4.61705 5.19361 4.4511 5.46675 4.33787C5.7399 4.22464 6.03268 4.16635 6.32837 4.16635C6.62405 4.16635 6.91684 4.22464 7.18998 4.33787C7.46313 4.4511 7.71128 4.61705 7.92024 4.82625L7.98774 4.89375C8.25288 5.1531 8.58964 5.32708 8.95458 5.39325C9.31953 5.45943 9.69593 5.41475 10.0352 5.265H10.1252C10.458 5.12239 10.7418 4.8856 10.9416 4.58377C11.1415 4.28195 11.2488 3.92826 11.2502 3.56625V3.375C11.2502 2.77826 11.4873 2.20597 11.9093 1.78401C12.3312 1.36205 12.9035 1.125 13.5002 1.125C14.097 1.125 14.6693 1.36205 15.0912 1.78401C15.5132 2.20597 15.7502 2.77826 15.7502 3.375V3.47625C15.7517 3.83826 15.859 4.19195 16.0588 4.49377C16.2587 4.7956 16.5425 5.03239 16.8752 5.175C17.2146 5.32475 17.591 5.36943 17.9559 5.30326C18.3209 5.23708 18.6576 5.0631 18.9227 4.80375L18.9902 4.73625C19.1992 4.52705 19.4474 4.3611 19.7205 4.24787C19.9936 4.13464 20.2864 4.07636 20.5821 4.07636C20.8778 4.07636 21.1706 4.13464 21.4437 4.24787C21.7169 4.3611 21.965 4.52705 22.174 4.73625C22.3832 4.94521 22.5491 5.19336 22.6624 5.46651C22.7756 5.73966 22.8339 6.03244 22.8339 6.32812C22.8339 6.62381 22.7756 6.91659 22.6624 7.18974C22.5491 7.46289 22.3832 7.71104 22.174 7.92L22.1065 7.9875C21.8471 8.25264 21.6732 8.58939 21.607 8.95434C21.5408 9.31928 21.5855 9.69568 21.7352 10.035V10.125C21.8779 10.4577 22.1146 10.7415 22.4165 10.9414C22.7183 11.1413 23.072 11.2486 23.434 11.25H23.6252C24.222 11.25 24.7943 11.4871 25.2162 11.909C25.6382 12.331 25.8752 12.9033 25.8752 13.5C25.8752 14.0967 25.6382 14.669 25.2162 15.091C24.7943 15.5129 24.222 15.75 23.6252 15.75H23.524C23.162 15.7514 22.8083 15.8587 22.5065 16.0586C22.2046 16.2585 21.9679 16.5423 21.8252 16.875V16.875Z" stroke="black" stroke-width="2.25" stroke-linecap="round" stroke-linejoin="round"/>
</svg>
